# xmcd CD database file
#
# Track frame offsets:
#	150
#	10534
#	25925
#	36914
#	63190
#	96098
#	109135
#	119043
#	137295
#	151270
#	167029
#	179052
#	192393
#	208833
#	221122
#	231613
#	244832
#	257320
#	273106
#	287448
#	308507
#
# Disc length: 4306 seconds
#
# Revision: 0
# Processed by: cddbd v1.4PL0 Copyright (c) Steve Scherf et al.
# Submitted via: CDex 1.50
#
DISCID=2810d015
DTITLE=Lou Armstrong - Jazzmasters
DYEAR=2001
DGENRE=Jazz
TTITLE0=What a wonderful world
TTITLE1=La Vie en Rose
TTITLE2=Hello Dolly
TTITLE3=On the Sunny Side of the Street
TTITLE4=Basin street Blues
TTITLE5=Blueberry Hill
TTITLE6=I Stell Get Jealous
TTITLE7=When you are smiling
TTITLE8=Kiss of Fire
TTITLE9=Hello Brother
TTITLE10=La Cucaracha
TTITLE11=Moon River
TTITLE12=Someday
TTITLE13=When the Saints Go Marching in
TTITLE14=It been a long, long time
TTITLE15=Sincerely
TTITLE16=Cabaret
TTITLE17=Memories of You
TTITLE18=Only You
TTITLE19=Jeepers Creepers
TTITLE20=Dream A Little Dream of Me
EXTD=YEAR: 2001
EXTT0=
EXTT1=
EXTT2=
EXTT3=
EXTT4=
EXTT5=
EXTT6=
EXTT7=
EXTT8=
EXTT9=
EXTT10=
EXTT11=
EXTT12=
EXTT13=
EXTT14=
EXTT15=
EXTT16=
EXTT17=
EXTT18=
EXTT19=
EXTT20=
PLAYORDER=
